<svg xmlns="http://www.w3.org/2000/svg" viewBox="0 0 16 16" shape-rendering="crispEdges">
  <rect width="16" height="16" fill="#000" />
  <!-- V -->
  <rect x="2" y="4" width="1" height="1" fill="#fff" />
  <rect x="6" y="4" width="1" height="1" fill="#fff" />
  <rect x="2" y="5" width="1" height="1" fill="#fff" />
  <rect x="6" y="5" width="1" height="1" fill="#fff" />
  <rect x="2" y="6" width="1" height="1" fill="#fff" />
  <rect x="6" y="6" width="1" height="1" fill="#fff" />
  <rect x="3" y="7" width="1" height="1" fill="#fff" />
  <rect x="5" y="7" width="1" height="1" fill="#fff" />
  <rect x="3" y="8" width="1" height="1" fill="#fff" />
  <rect x="5" y="8" width="1" height="1" fill="#fff" />
  <rect x="4" y="9" width="1" height="1" fill="#fff" />
  <rect x="4" y="10" width="1" height="1" fill="#fff" />
  <!-- S -->
  <rect x="10" y="4" width="1" height="1" fill="#fff" />
  <rect x="11" y="4" width="1" height="1" fill="#fff" />
  <rect x="12" y="4" width="1" height="1" fill="#fff" />
  <rect x="13" y="4" width="1" height="1" fill="#fff" />
  <rect x="14" y="4" width="1" height="1" fill="#fff" />
  <rect x="10" y="5" width="1" height="1" fill="#fff" />
  <rect x="14" y="5" width="1" height="1" fill="#fff" />
  <rect x="10" y="6" width="1" height="1" fill="#fff" />
  <rect x="11" y="7" width="1" height="1" fill="#fff" />
  <rect x="12" y="7" width="1" height="1" fill="#fff" />
  <rect x="13" y="7" width="1" height="1" fill="#fff" />
  <rect x="14" y="7" width="1" height="1" fill="#fff" />
  <rect x="14" y="8" width="1" height="1" fill="#fff" />
  <rect x="14" y="9" width="1" height="1" fill="#fff" />
  <rect x="10" y="10" width="1" height="1" fill="#fff" />
  <rect x="11" y="10" width="1" height="1" fill="#fff" />
  <rect x="12" y="10" width="1" height="1" fill="#fff" />
  <rect x="13" y="10" width="1" height="1" fill="#fff" />
  <rect x="14" y="10" width="1" height="1" fill="#fff" />
</svg>
